<mxfile host="app.diagrams.net" modified="2023-05-27T14:38:07.153Z" agent="Mozilla/5.0 (Macintosh; Intel Mac OS X 10_15_7) AppleWebKit/537.36 (KHTML, like Gecko) Chrome/113.0.0.0 Safari/537.36" etag="mSssVH30wbF4zCqFMfBd" version="21.3.2" type="github">
  <diagram name="PÃ¡gina-1" id="-nuQX69BrDCYDgjxoLym">
    <mxGraphModel dx="794" dy="487" grid="1" gridSize="10" guides="1" tooltips="1" connect="1" arrows="1" fold="1" page="1" pageScale="1" pageWidth="827" pageHeight="1169" math="0" shadow="0">
      <root>
        <mxCell id="0" />
        <mxCell id="1" parent="0" />
        <mxCell id="q_8tbcRSNEc9OwMH0Cl2-10" style="edgeStyle=orthogonalEdgeStyle;rounded=0;orthogonalLoop=1;jettySize=auto;html=1;entryX=0;entryY=0.5;entryDx=0;entryDy=0;" edge="1" parent="1" source="q_8tbcRSNEc9OwMH0Cl2-1" target="q_8tbcRSNEc9OwMH0Cl2-6">
          <mxGeometry relative="1" as="geometry" />
        </mxCell>
        <mxCell id="q_8tbcRSNEc9OwMH0Cl2-18" style="edgeStyle=orthogonalEdgeStyle;rounded=0;orthogonalLoop=1;jettySize=auto;html=1;entryX=0;entryY=0.5;entryDx=0;entryDy=0;" edge="1" parent="1" source="q_8tbcRSNEc9OwMH0Cl2-1" target="q_8tbcRSNEc9OwMH0Cl2-8">
          <mxGeometry relative="1" as="geometry" />
        </mxCell>
        <mxCell id="q_8tbcRSNEc9OwMH0Cl2-1" value="Alumno" style="shape=umlActor;verticalLabelPosition=bottom;verticalAlign=top;html=1;outlineConnect=0;" vertex="1" parent="1">
          <mxGeometry x="200" y="160" width="30" height="60" as="geometry" />
        </mxCell>
        <mxCell id="q_8tbcRSNEc9OwMH0Cl2-11" style="edgeStyle=orthogonalEdgeStyle;rounded=0;orthogonalLoop=1;jettySize=auto;html=1;entryX=1;entryY=0.5;entryDx=0;entryDy=0;" edge="1" parent="1" source="q_8tbcRSNEc9OwMH0Cl2-2" target="q_8tbcRSNEc9OwMH0Cl2-6">
          <mxGeometry relative="1" as="geometry" />
        </mxCell>
        <mxCell id="q_8tbcRSNEc9OwMH0Cl2-15" style="edgeStyle=orthogonalEdgeStyle;rounded=0;orthogonalLoop=1;jettySize=auto;html=1;entryX=1;entryY=0.5;entryDx=0;entryDy=0;" edge="1" parent="1" source="q_8tbcRSNEc9OwMH0Cl2-2" target="q_8tbcRSNEc9OwMH0Cl2-7">
          <mxGeometry relative="1" as="geometry">
            <Array as="points">
              <mxPoint x="560" y="190" />
              <mxPoint x="560" y="255" />
            </Array>
          </mxGeometry>
        </mxCell>
        <mxCell id="q_8tbcRSNEc9OwMH0Cl2-17" style="edgeStyle=orthogonalEdgeStyle;rounded=0;orthogonalLoop=1;jettySize=auto;html=1;entryX=1;entryY=0.5;entryDx=0;entryDy=0;" edge="1" parent="1" source="q_8tbcRSNEc9OwMH0Cl2-2" target="q_8tbcRSNEc9OwMH0Cl2-8">
          <mxGeometry relative="1" as="geometry" />
        </mxCell>
        <mxCell id="q_8tbcRSNEc9OwMH0Cl2-2" value="Docente" style="shape=umlActor;verticalLabelPosition=bottom;verticalAlign=top;html=1;outlineConnect=0;" vertex="1" parent="1">
          <mxGeometry x="580" y="160" width="30" height="60" as="geometry" />
        </mxCell>
        <mxCell id="q_8tbcRSNEc9OwMH0Cl2-14" style="edgeStyle=orthogonalEdgeStyle;rounded=0;orthogonalLoop=1;jettySize=auto;html=1;entryX=1;entryY=0.5;entryDx=0;entryDy=0;" edge="1" parent="1" source="q_8tbcRSNEc9OwMH0Cl2-3" target="q_8tbcRSNEc9OwMH0Cl2-6">
          <mxGeometry relative="1" as="geometry">
            <Array as="points">
              <mxPoint x="560" y="390" />
              <mxPoint x="560" y="190" />
            </Array>
          </mxGeometry>
        </mxCell>
        <mxCell id="q_8tbcRSNEc9OwMH0Cl2-16" style="edgeStyle=orthogonalEdgeStyle;rounded=0;orthogonalLoop=1;jettySize=auto;html=1;entryX=1;entryY=0.5;entryDx=0;entryDy=0;" edge="1" parent="1" source="q_8tbcRSNEc9OwMH0Cl2-3" target="q_8tbcRSNEc9OwMH0Cl2-7">
          <mxGeometry relative="1" as="geometry">
            <Array as="points">
              <mxPoint x="660" y="390" />
              <mxPoint x="660" y="255" />
            </Array>
          </mxGeometry>
        </mxCell>
        <mxCell id="q_8tbcRSNEc9OwMH0Cl2-3" value="Admin" style="shape=umlActor;verticalLabelPosition=bottom;verticalAlign=top;html=1;outlineConnect=0;" vertex="1" parent="1">
          <mxGeometry x="590" y="360" width="30" height="60" as="geometry" />
        </mxCell>
        <mxCell id="q_8tbcRSNEc9OwMH0Cl2-13" style="edgeStyle=orthogonalEdgeStyle;rounded=0;orthogonalLoop=1;jettySize=auto;html=1;entryX=0;entryY=0.5;entryDx=0;entryDy=0;dashed=1;exitX=0.5;exitY=0;exitDx=0;exitDy=0;strokeColor=#3333FF;" edge="1" parent="1" source="q_8tbcRSNEc9OwMH0Cl2-6" target="q_8tbcRSNEc9OwMH0Cl2-12">
          <mxGeometry relative="1" as="geometry">
            <mxPoint x="360" y="20" as="targetPoint" />
            <Array as="points">
              <mxPoint x="400" y="165" />
              <mxPoint x="400" y="85" />
            </Array>
          </mxGeometry>
        </mxCell>
        <mxCell id="q_8tbcRSNEc9OwMH0Cl2-6" value="Login" style="ellipse;whiteSpace=wrap;html=1;" vertex="1" parent="1">
          <mxGeometry x="350" y="165" width="90" height="50" as="geometry" />
        </mxCell>
        <mxCell id="q_8tbcRSNEc9OwMH0Cl2-7" value="Registrar Cal" style="ellipse;whiteSpace=wrap;html=1;" vertex="1" parent="1">
          <mxGeometry x="350" y="230" width="90" height="50" as="geometry" />
        </mxCell>
        <mxCell id="q_8tbcRSNEc9OwMH0Cl2-8" value="Consultar Cal" style="ellipse;whiteSpace=wrap;html=1;" vertex="1" parent="1">
          <mxGeometry x="350" y="300" width="100" height="50" as="geometry" />
        </mxCell>
        <mxCell id="q_8tbcRSNEc9OwMH0Cl2-9" value="Modificar Cal" style="ellipse;whiteSpace=wrap;html=1;" vertex="1" parent="1">
          <mxGeometry x="350" y="370" width="100" height="50" as="geometry" />
        </mxCell>
        <mxCell id="q_8tbcRSNEc9OwMH0Cl2-12" value="Verif Tusuario" style="ellipse;whiteSpace=wrap;html=1;" vertex="1" parent="1">
          <mxGeometry x="470" y="60" width="90" height="50" as="geometry" />
        </mxCell>
      </root>
    </mxGraphModel>
  </diagram>
</mxfile>
